<?xml version="1.0" encoding="UTF-8" standalone="no"?>
<!-- Generator: Adobe Illustrator 12.0.1, SVG Export Plug-In  -->
<svg
   xmlns:dc="http://purl.org/dc/elements/1.1/"
   xmlns:cc="http://web.resource.org/cc/"
   xmlns:rdf="http://www.w3.org/1999/02/22-rdf-syntax-ns#"
   xmlns:svg="http://www.w3.org/2000/svg"
   xmlns="http://www.w3.org/2000/svg"
   xmlns:sodipodi="http://sodipodi.sourceforge.net/DTD/sodipodi-0.dtd"
   xmlns:inkscape="http://www.inkscape.org/namespaces/inkscape"
   version="1.0"
   width="2140"
   height="950"
   viewBox="0 0 214 95"
   enable-background="new 0 0 214 95"
   xml:space="preserve"
   id="svg2"
   sodipodi:version="0.32"
   inkscape:version="0.44"
   sodipodi:docname="グルタミン酸ナトリウム.svg"
   sodipodi:docbase="C:\Documents and Settings\yamida\デスクトップ"><metadata
   id="metadata47"><rdf:RDF><cc:Work
       rdf:about=""><dc:format>image/svg+xml</dc:format><dc:type
         rdf:resource="http://purl.org/dc/dcmitype/StillImage" /></cc:Work></rdf:RDF></metadata><sodipodi:namedview
   inkscape:window-height="1002"
   inkscape:window-width="1280"
   inkscape:pageshadow="2"
   inkscape:pageopacity="0.0"
   guidetolerance="10.0"
   gridtolerance="10.0"
   objecttolerance="10.0"
   borderopacity="1.0"
   bordercolor="#666666"
   pagecolor="#ffffff"
   id="base"
   width="2140px"
   height="950px"
   inkscape:zoom="0.43421242"
   inkscape:cx="1305.5221"
   inkscape:cy="444.16053"
   inkscape:window-x="-4"
   inkscape:window-y="-4"
   inkscape:current-layer="svg2" />
<defs
   id="defs4">
</defs>
<text
   font-size="14"
   id="text6"
   style="font-size:13.05056095px;font-family:arial"
   x="7.2592311"
   y="58.443619">HO</text>

<polygon
   points="41.75,36.144 41.75,37.344 24.55,47.244 24.05,46.394 41.75,36.144 "
   id="polygon8"
   transform="matrix(0.932183,0,0,0.932183,7.259231,5.175327)" />
<polygon
   points="67.7,51.144 67.7,52.344 41.75,37.344 41.75,36.144 67.7,51.144 "
   id="polygon10"
   transform="matrix(0.932183,0,0,0.932183,7.259231,5.175327)" />
<polygon
   points="93.7,36.144 93.7,37.344 67.7,52.344 67.7,51.144 93.7,36.144 "
   id="polygon12"
   transform="matrix(0.932183,0,0,0.932183,7.259231,5.175327)" />
<polygon
   points="119.65,51.144 119.65,51.743 119.15,51.993 93.7,37.344 93.7,36.144 119.65,51.144 "
   id="polygon14"
   transform="matrix(0.932183,0,0,0.932183,7.259231,5.175327)" />
<polygon
   points="145.65,36.144 145.65,37.344 120.2,51.993 119.65,51.743 119.65,51.144 145.65,36.144 "
   id="polygon16"
   transform="matrix(0.932183,0,0,0.932183,7.259231,5.175327)" />
<text
   font-size="14"
   id="text18"
   style="font-size:13.05056095px;font-family:arial"
   x="162.1418"
   y="58.443619">O</text>

<text
   font-size="10.5"
   id="text20"
   style="font-size:9.78792095px;font-family:arial"
   x="172.282"
   y="53.549656">-</text>

<text
   font-size="14"
   id="text22"
   style="font-size:13.05056095px;font-family:arial"
   x="177.94519"
   y="58.443619"> Na</text>

<text
   font-size="10.5"
   id="text24"
   style="font-size:9.78792095px;font-family:arial"
   x="198.92657"
   y="53.549656">+</text>

<polygon
   points="163.3,46.344 162.8,47.244 145.65,37.344 145.65,36.144 163.3,46.344 "
   id="polygon26"
   transform="matrix(0.932183,0,0,0.932183,7.259231,5.175327)" />
<text
   font-size="14"
   id="text28"
   style="font-size:13.05056095px;font-family:arial"
   x="137.95146"
   y="16.495384">O</text>

<rect
   x="140.88766"
   y="21.295565"
   width="0.93311518"
   height="19.109751"
   id="rect30" />
<rect
   x="144.24352"
   y="21.295565"
   width="0.93218291"
   height="19.109751"
   id="rect32" />
<text
   font-size="14"
   id="text34"
   style="font-size:13.05056095px;font-family:arial"
   x="114.0406"
   y="86.409103">NH</text>

<text
   font-size="10.5"
   id="text36"
   style="font-size:9.78792095px;font-family:arial"
   x="133.27602"
   y="88.856079">2</text>

<polygon
   points="122.65,71.993 116.65,71.993 119.15,51.993 119.65,51.743 120.2,51.993 122.65,71.993 "
   id="polygon38"
   transform="matrix(0.932183,0,0,0.932183,7.259231,5.175327)" />
<text
   font-size="14"
   id="text40"
   style="font-size:13.05056095px;font-family:arial"
   x="41.050861"
   y="16.495384">O</text>

<rect
   x="44.033848"
   y="21.295565"
   width="0.93218291"
   height="19.109751"
   id="rect42" />
<rect
   x="47.389706"
   y="21.295565"
   width="0.93218291"
   height="19.109751"
   id="rect44" />
</svg>